<?xml version="1.0" encoding="UTF-8" standalone="no"?>
<!-- Created with Inkscape (http://www.inkscape.org/) -->

<svg
   xmlns:dc="http://purl.org/dc/elements/1.1/"
   xmlns:cc="http://creativecommons.org/ns#"
   xmlns:rdf="http://www.w3.org/1999/02/22-rdf-syntax-ns#"
   xmlns:svg="http://www.w3.org/2000/svg"
   xmlns="http://www.w3.org/2000/svg"
   xmlns:sodipodi="http://sodipodi.sourceforge.net/DTD/sodipodi-0.dtd"
   xmlns:inkscape="http://www.inkscape.org/namespaces/inkscape"
   version="1.1"
   id="svg2"
   width="1396.3634"
   height="174.54546"
   viewBox="0 0 1396.3634 174.54546"
   sodipodi:docname="buttons.svg"
   inkscape:version="0.92.3 (2405546, 2018-03-11)"
   inkscape:export-filename="C:\Users\dan\Documents\mobile blocks\buttons.png"
   inkscape:export-xdpi="300"
   inkscape:export-ydpi="300">
  <metadata
     id="metadata8">
    <rdf:RDF>
      <cc:Work
         rdf:about="">
        <dc:format>image/svg+xml</dc:format>
        <dc:type
           rdf:resource="http://purl.org/dc/dcmitype/StillImage" />
        <dc:title></dc:title>
      </cc:Work>
    </rdf:RDF>
  </metadata>
  <defs
     id="defs6" />
  <sodipodi:namedview
     pagecolor="#ffffff"
     bordercolor="#666666"
     borderopacity="1"
     objecttolerance="10"
     gridtolerance="10"
     guidetolerance="10"
     inkscape:pageopacity="0"
     inkscape:pageshadow="2"
     inkscape:window-width="1920"
     inkscape:window-height="1017"
     id="namedview4"
     showgrid="false"
     inkscape:zoom="0.65083332"
     inkscape:cx="691.89676"
     inkscape:cy="309.19227"
     inkscape:window-x="-8"
     inkscape:window-y="-8"
     inkscape:window-maximized="1"
     inkscape:current-layer="svg2"
     units="px" />
  <path
     style="opacity:1;fill:#878787;fill-opacity:1;stroke:none;stroke-width:1.37952757;stroke-linecap:round;stroke-linejoin:miter;stroke-miterlimit:4;stroke-dasharray:none;stroke-opacity:1;paint-order:stroke fill markers"
     d="m 439.60778,32.060813 a 55.212502,55.212502 0 0 0 -46.32618,25.29688 l -15.375,-4.1875 12.69141,40.19336 31.79492,-28.07617 -13.875,-3.7793 a 40.418606,40.418606 0 0 1 31.08985,-14.6543 40.418606,40.418606 0 0 1 40.41797,40.41797 40.418606,40.418606 0 0 1 -40.41797,40.419917 40.418606,40.418606 0 0 1 -32.82422,-16.91992 c -4.91836,1.29737 -9.04692,2.38088 -15.02735,3.95313 a 55.212502,55.212502 0 0 0 47.85157,27.75976 55.212502,55.212502 0 0 0 55.21289,-55.212887 55.212502,55.212502 0 0 0 -55.21289,-55.21094 z"
     id="path4535"
     inkscape:connector-curvature="0" />
  <path
     style="fill:#878787;fill-opacity:1;stroke-width:1"
     d="m 661.80368,123.25023 c 4.26504,-36.586279 -22.83412,-60.444139 -56.45711,-51.427839 -7.54267,1.69023 -14.29543,8.37008 -14.29543,8.37008 l 13.53163,7.931022 -40.10533,20.859377 -12.9764,-55.281789 16.94646,10.123487 c 18.39036,-17.9021 42.50932,-22.457757 63.41351,-17.545277 31.02691,6.04307 42.06483,34.42304 37.44867,60.523869 -1.48991,7.89181 -6.96665,21.84215 -8.42841,23.44037 -0.34378,0.37589 0.40403,-3.12421 0.92241,-6.9933 z"
     id="path4533-5"
     inkscape:connector-curvature="0"
     sodipodi:nodetypes="ccccccccccc" />
  <g
     id="g4997"
     transform="matrix(0.89534031,0,0,0.89534031,112.0407,371.51459)"
     style="fill:#878787;fill-opacity:1;stroke-width:1.11689377">
    <rect
       ry="9.8911648"
       y="-369.37256"
       x="112.93214"
       height="19.78233"
       width="108.7068"
       id="rect4603"
       style="opacity:1;fill:#878787;fill-opacity:1;stroke:none;stroke-width:1.54078567;stroke-linecap:round;stroke-linejoin:miter;stroke-miterlimit:4;stroke-dasharray:none;stroke-opacity:1;paint-order:stroke fill markers" />
    <rect
       ry="9.8911648"
       y="-327.35913"
       x="112.93214"
       height="19.78233"
       width="108.7068"
       id="rect4603-0"
       style="opacity:1;fill:#878787;fill-opacity:1;stroke:none;stroke-width:1.54078567;stroke-linecap:round;stroke-linejoin:miter;stroke-miterlimit:4;stroke-dasharray:none;stroke-opacity:1;paint-order:stroke fill markers" />
    <rect
       ry="9.8911648"
       y="-285.3457"
       x="112.93214"
       height="19.78233"
       width="108.7068"
       id="rect4603-9"
       style="opacity:1;fill:#878787;fill-opacity:1;stroke:none;stroke-width:1.54078567;stroke-linecap:round;stroke-linejoin:miter;stroke-miterlimit:4;stroke-dasharray:none;stroke-opacity:1;paint-order:stroke fill markers" />
  </g>
  <g
     id="g5132"
     transform="matrix(0.89144666,0,0,0.89144666,7.7576984,9.4737355)"
     style="stroke-width:1.12177217">
    <g
       transform="translate(2.4445434,1.77515)"
       id="g5105"
       style="stroke-width:1.12177217">
      <circle
         style="opacity:1;fill:#878787;fill-opacity:1;stroke:none;stroke-width:1.54751551;stroke-linecap:round;stroke-linejoin:miter;stroke-miterlimit:4;stroke-dasharray:none;stroke-opacity:1;paint-order:stroke fill markers"
         id="path4626-2"
         cx="48.414867"
         cy="116.25777"
         r="3.0729835" />
      <circle
         style="opacity:1;fill:#878787;fill-opacity:1;stroke:none;stroke-width:1.54751551;stroke-linecap:round;stroke-linejoin:miter;stroke-miterlimit:4;stroke-dasharray:none;stroke-opacity:1;paint-order:stroke fill markers"
         id="path4626-8"
         cx="48.414867"
         cy="125.85552"
         r="3.0729835" />
      <circle
         style="opacity:1;fill:#878787;fill-opacity:1;stroke:none;stroke-width:1.54751551;stroke-linecap:round;stroke-linejoin:miter;stroke-miterlimit:4;stroke-dasharray:none;stroke-opacity:1;paint-order:stroke fill markers"
         id="path4626-1"
         cx="48.414867"
         cy="135.45326"
         r="3.0729835" />
      <circle
         style="opacity:1;fill:#878787;fill-opacity:1;stroke:none;stroke-width:1.54751551;stroke-linecap:round;stroke-linejoin:miter;stroke-miterlimit:4;stroke-dasharray:none;stroke-opacity:1;paint-order:stroke fill markers"
         id="path4626-89"
         cx="48.414867"
         cy="54.434013"
         r="3.0729835" />
      <circle
         style="opacity:1;fill:#878787;fill-opacity:1;stroke:none;stroke-width:1.54751551;stroke-linecap:round;stroke-linejoin:miter;stroke-miterlimit:4;stroke-dasharray:none;stroke-opacity:1;paint-order:stroke fill markers"
         id="path4626-8-3"
         cx="48.414867"
         cy="35.299858"
         r="3.0729835" />
      <circle
         style="opacity:1;fill:#878787;fill-opacity:1;stroke:none;stroke-width:1.54751551;stroke-linecap:round;stroke-linejoin:miter;stroke-miterlimit:4;stroke-dasharray:none;stroke-opacity:1;paint-order:stroke fill markers"
         id="path4626-1-9"
         cx="48.414867"
         cy="44.866936"
         r="3.0729835" />
      <path
         style="fill:#878787;fill-opacity:1;stroke:none;stroke-width:1.12177217px;stroke-linecap:butt;stroke-linejoin:miter;stroke-opacity:1"
         d="m 48.414863,15.889156 -16.984371,20.58789 5.88281,-0.008 11.101561,-13.45899 11.10156,13.42578 5.88282,-0.008 z"
         id="path4679"
         inkscape:connector-curvature="0" />
      <path
         style="fill:#878787;fill-opacity:1;stroke:none;stroke-width:1.12177217px;stroke-linecap:butt;stroke-linejoin:miter;stroke-opacity:1"
         d="m 48.414872,155.106 16.984371,-20.58789 -5.88281,0.008 -11.101561,13.45899 -11.10156,-13.42578 -5.88282,0.008 z"
         id="path4679-3"
         inkscape:connector-curvature="0" />
      <circle
         style="opacity:1;fill:#878787;fill-opacity:1;stroke:none;stroke-width:1.54751551;stroke-linecap:round;stroke-linejoin:miter;stroke-miterlimit:4;stroke-dasharray:none;stroke-opacity:1;paint-order:stroke fill markers"
         id="path4626-2-7"
         cx="48.414867"
         cy="106.66001"
         r="3.0729835" />
      <circle
         style="opacity:1;fill:#878787;fill-opacity:1;stroke:none;stroke-width:1.54751551;stroke-linecap:round;stroke-linejoin:miter;stroke-miterlimit:4;stroke-dasharray:none;stroke-opacity:1;paint-order:stroke fill markers"
         id="path4626-89-1"
         cx="48.414867"
         cy="64.001083"
         r="3.0729835" />
      <circle
         style="opacity:1;fill:#878787;fill-opacity:1;stroke:none;stroke-width:1.54751563;stroke-linecap:round;stroke-linejoin:miter;stroke-miterlimit:4;stroke-dasharray:none;stroke-opacity:1;paint-order:stroke fill markers"
         id="path4626-89-7"
         cx="48.414867"
         cy="85.497574"
         r="20.838671" />
    </g>
    <g
       transform="translate(107.6782,439.61697)"
       id="g4992"
       style="fill:#878787;fill-opacity:1;stroke-width:1.12177217">
      <path
         style="fill:#878787;fill-opacity:1;stroke-width:1.12177217"
         d="m 11.203468,-292.68961 -5.2780704,-5.27807 -8.87767,8.74415 -5.62128,-5.86736 8.51085001,-8.67194 -4.58706001,-4.8827 H 11.203468 Z"
         id="path4533-2"
         inkscape:connector-curvature="0"
         sodipodi:nodetypes="cccccccc" />
      <path
         style="fill:#878787;fill-opacity:1;stroke-width:1.12177217"
         d="m 14.175427,-327.94369 5.27807,5.27807 8.87767,-8.74415 5.62128,5.86736 -8.51085,8.67194 4.58706,4.8827 h -15.85323 z"
         id="path4533-2-26-4"
         inkscape:connector-curvature="0"
         sodipodi:nodetypes="cccccccc" />
      <path
         style="fill:#878787;fill-opacity:1;stroke-width:1.12177217"
         d="m 32.066048,-397.89238 -5.27807,-5.27807 -8.87767,8.74415 -5.62128,-5.86736 8.51085,-8.67194 -4.58706,-4.8827 h 15.85323 z"
         id="path4533-2-5"
         inkscape:connector-curvature="0"
         sodipodi:nodetypes="cccccccc" />
      <path
         style="opacity:1;fill:#878787;fill-opacity:1;stroke:none;stroke-width:1.54751551;stroke-linecap:round;stroke-linejoin:miter;stroke-miterlimit:4;stroke-dasharray:none;stroke-opacity:1;paint-order:stroke fill markers"
         d="m 17.265054,-338.04055 v 3.85473 h 19.576763 v 19.57676 h 3.854728 v -23.43149 z"
         id="rect4823-9"
         inkscape:connector-curvature="0" />
      <path
         style="opacity:1;fill:#878787;fill-opacity:1;stroke:none;stroke-width:1.54751551;stroke-linecap:round;stroke-linejoin:miter;stroke-miterlimit:4;stroke-dasharray:none;stroke-opacity:1;paint-order:stroke fill markers"
         d="m 7.885606,-338.04055 v 3.85473 h -19.576763 v 19.57676 h -3.854728 v -23.43149 z"
         id="rect4823-9-7"
         inkscape:connector-curvature="0" />
      <path
         style="opacity:1;fill:#878787;fill-opacity:1;stroke:none;stroke-width:1.54751551;stroke-linecap:round;stroke-linejoin:miter;stroke-miterlimit:4;stroke-dasharray:none;stroke-opacity:1;paint-order:stroke fill markers"
         d="m 7.885602,-282.28424 v -3.85473 h -19.576763 v -19.57676 h -3.854728 v 23.43149 z"
         id="rect4823-9-7-6"
         inkscape:connector-curvature="0" />
      <path
         style="opacity:1;fill:#878787;fill-opacity:1;stroke:none;stroke-width:1.54751551;stroke-linecap:round;stroke-linejoin:miter;stroke-miterlimit:4;stroke-dasharray:none;stroke-opacity:1;paint-order:stroke fill markers"
         d="m 17.26505,-282.28424 v -3.85473 h 19.576763 v -19.57676 h 3.854728 v 23.43149 z"
         id="rect4823-9-7-6-3"
         inkscape:connector-curvature="0" />
      <path
         style="opacity:1;fill:#878787;fill-opacity:1;stroke:none;stroke-width:1.54751551;stroke-linecap:round;stroke-linejoin:miter;stroke-miterlimit:4;stroke-dasharray:none;stroke-opacity:1;paint-order:stroke fill markers"
         d="m 17.265054,-422.40422 v 3.85473 h 19.576767 v 19.57676 h 3.85472 v -23.43149 z"
         id="rect4823-9-2"
         inkscape:connector-curvature="0" />
      <path
         style="opacity:1;fill:#878787;fill-opacity:1;stroke:none;stroke-width:1.54751551;stroke-linecap:round;stroke-linejoin:miter;stroke-miterlimit:4;stroke-dasharray:none;stroke-opacity:1;paint-order:stroke fill markers"
         d="m 7.885606,-422.40422 v 3.85473 h -19.576763 v 19.57676 h -3.854728 v -23.43149 z"
         id="rect4823-9-7-5"
         inkscape:connector-curvature="0" />
      <path
         style="opacity:1;fill:#878787;fill-opacity:1;stroke:none;stroke-width:1.54751551;stroke-linecap:round;stroke-linejoin:miter;stroke-miterlimit:4;stroke-dasharray:none;stroke-opacity:1;paint-order:stroke fill markers"
         d="m 7.885606,-366.64789 v -3.85473 h -19.576763 v -19.57676 h -3.854728 v 23.43149 z"
         id="rect4823-9-7-6-0"
         inkscape:connector-curvature="0" />
      <path
         style="opacity:1;fill:#878787;fill-opacity:1;stroke:none;stroke-width:1.54751551;stroke-linecap:round;stroke-linejoin:miter;stroke-miterlimit:4;stroke-dasharray:none;stroke-opacity:1;paint-order:stroke fill markers"
         d="m 17.265054,-366.64789 v -3.85473 h 19.576767 v -19.57676 h 3.85472 v 23.43149 z"
         id="rect4823-9-7-6-3-0"
         inkscape:connector-curvature="0" />
      <path
         style="fill:#878787;fill-opacity:1;stroke-width:1.12177217"
         d="m -6.8580129,-391.08254 5.27807,5.27807 8.87767,-8.74415 5.6212799,5.86736 -8.5108499,8.67194 4.58706,4.8827 h -15.85323 z"
         id="path4533-2-26-4-8"
         inkscape:connector-curvature="0"
         sodipodi:nodetypes="cccccccc" />
    </g>
  </g>
  <text
     xml:space="preserve"
     style="font-style:normal;font-weight:normal;font-size:39.35106277px;line-height:1.25;font-family:sans-serif;letter-spacing:0px;word-spacing:0px;fill:#878787;fill-opacity:1;stroke:none;stroke-width:1"
     x="799.56024"
     y="165.5869"
     id="text5136"
     transform="scale(0.98377663,1.0164909)"><tspan
       sodipodi:role="line"
       id="tspan5134"
       x="799.56024"
       y="165.5869"
       style="font-style:normal;font-variant:normal;font-weight:bold;font-stretch:normal;font-family:ROBOTO;-inkscape-font-specification:'ROBOTO Bold';text-align:center;text-anchor:middle;fill:#878787;fill-opacity:1;stroke-width:1">TO GOAL</tspan></text>
  <g
     id="g5452"
     style="display:inline">
    <rect
       y="0"
       x="698.18182"
       height="174.54546"
       width="174.54546"
       id="rect4999-1"
       style="display:none;opacity:1;fill:none;fill-opacity:1;stroke:#240000;stroke-width:1.37952757;stroke-linecap:round;stroke-linejoin:miter;stroke-miterlimit:4;stroke-dasharray:none;stroke-opacity:1;paint-order:stroke fill markers" />
    <rect
       y="0"
       x="523.63635"
       height="174.54546"
       width="174.54546"
       id="rect4999-46"
       style="display:none;opacity:1;fill:none;fill-opacity:1;stroke:#240000;stroke-width:1.37952757;stroke-linecap:round;stroke-linejoin:miter;stroke-miterlimit:4;stroke-dasharray:none;stroke-opacity:1;paint-order:stroke fill markers" />
    <rect
       y="0"
       x="349.09091"
       height="174.54546"
       width="174.54546"
       id="rect4999-47"
       style="display:none;opacity:1;fill:none;fill-opacity:1;stroke:#240000;stroke-width:1.37952757;stroke-linecap:round;stroke-linejoin:miter;stroke-miterlimit:4;stroke-dasharray:none;stroke-opacity:1;paint-order:stroke fill markers" />
    <rect
       y="0"
       x="174.54546"
       height="174.54546"
       width="174.54546"
       id="rect4999-4"
       style="display:none;opacity:1;fill:none;fill-opacity:1;stroke:#240000;stroke-width:1.37952757;stroke-linecap:round;stroke-linejoin:miter;stroke-miterlimit:4;stroke-dasharray:none;stroke-opacity:1;paint-order:stroke fill markers" />
    <rect
       y="0"
       x="0"
       height="174.54546"
       width="174.54546"
       id="rect4999"
       style="display:none;opacity:1;fill:none;fill-opacity:1;stroke:#240000;stroke-width:1.37952757;stroke-linecap:round;stroke-linejoin:miter;stroke-miterlimit:4;stroke-dasharray:none;stroke-opacity:1;paint-order:stroke fill markers" />
    <rect
       y="0"
       x="872.72729"
       height="174.54546"
       width="174.54546"
       id="rect4999-7"
       style="display:none;opacity:1;fill:none;fill-opacity:1;stroke:#240000;stroke-width:1.37952757;stroke-linecap:round;stroke-linejoin:miter;stroke-miterlimit:4;stroke-dasharray:none;stroke-opacity:1;paint-order:stroke fill markers" />
    <rect
       y="0"
       x="1047.2727"
       height="174.54546"
       width="174.54546"
       id="rect4999-4-2"
       style="display:none;opacity:1;fill:none;fill-opacity:1;stroke:#240000;stroke-width:1.37952757;stroke-linecap:round;stroke-linejoin:miter;stroke-miterlimit:4;stroke-dasharray:none;stroke-opacity:1;paint-order:stroke fill markers" />
    <rect
       y="0"
       x="1221.8182"
       height="174.54546"
       width="174.54546"
       id="rect4999-47-0"
       style="display:none;opacity:1;fill:none;fill-opacity:1;stroke:#240000;stroke-width:1.37952757;stroke-linecap:round;stroke-linejoin:miter;stroke-miterlimit:4;stroke-dasharray:none;stroke-opacity:1;paint-order:stroke fill markers" />
  </g>
  <path
     style="fill:#878787;fill-opacity:1;stroke:none;stroke-width:1px;stroke-linecap:butt;stroke-linejoin:miter;stroke-opacity:1"
     d="m 1015.0176,87.27276 c -6e-4,30.38468 -24.6321,55.01616 -55.01678,55.01682 -30.38529,2.1e-4 -55.01772,-24.63153 -55.01838,-55.01682 -1.7e-4,-30.385837 24.6325,-55.016987 55.01838,-55.016887 30.38527,7e-4 55.01698,24.63165 55.01678,55.016887 z m -20.7183,-17.639567 -68.59852,-0.12434 34.29849,47.875517 z"
     id="path4679-32-4-5-8"
     inkscape:connector-curvature="0" />
  <path
     style="fill:#878787;fill-opacity:1;stroke-width:1"
     d="m 1268.6927,86.561188 c -1.9204,-3.908131 -2.855,-7.377599 -3.2558,-12.086811 -0.5172,-6.0782 0.976,-11.887685 4.3045,-16.748011 1.3063,-1.907409 4.4661,-5.014571 6.4137,-6.30692 6.8842,-4.567941 15.3714,-5.464696 22.9653,-2.426479 3.2013,1.280869 5.8823,3.081511 8.3545,5.611348 l 1.5557,1.59196 1.2661,-1.320712 c 9.1933,-9.590059 24.1602,-10.248632 34.1864,-1.504276 5.9048,5.149857 8.9628,12.92866 8.2637,21.021074 -0.6968,8.066472 -3.8578,14.627615 -10.4506,21.692247 -11.908,11.585722 -26.8586,16.966162 -34.7743,31.242732 -8.1057,-19.41781 -30.236,-23.692 -38.8292,-40.766152 z"
     id="path5442"
     inkscape:connector-curvature="0"
     sodipodi:nodetypes="ccccssccscccc" />
  <path
     inkscape:connector-curvature="0"
     style="fill:#878787;fill-opacity:1;stroke:none;stroke-width:1px;stroke-linecap:butt;stroke-linejoin:miter;stroke-opacity:1"
     d="m 1189.563,87.27273 c -7e-4,-30.384701 -24.6321,-55.016201 -55.0168,-55.016801 -30.3853,-3e-4 -55.0177,24.6315 -55.0184,55.016801 -2e-4,30.3859 24.6325,55.0169 55.0184,55.0168 30.3852,-7e-4 55.017,-24.6316 55.0168,-55.0168 z m -20.7183,17.6396 -68.5986,0.1242 34.2985,-47.875501 z"
     id="path4679-32-4-5-8-1" />
</svg>
